PathFileType	4	(X/Y/Z)	c:/Users/goper/Files/vsCode/490R/osim_files/C12/C12_ROM.trc
DataRate	CameraRate	NumFrames	NumMarkers	Units                	OrigDataRate	OrigDataStartFrame	OrigNumFrames
120.00	120.00	4	36	mm	120.0	956	1911
                Frame#	Time	LPSIS			LASIS			LTH1			LTH2			LTH3			LTH4			LLFE			LMFE			LSH1			LSH2			LSH3			LSH4			LLMAL			LMMAL			LCAL			LMTP5			LTOE			LMTP1			RPSIS			RASIS			RTH1			RTH2			RTH3			RTH4			RLFE			RMFE			RSH1			RSH2			RSH3			RSH4			RLMAL			RMMAL			RCAL			RMTP1			RTOE			RMTP5		
		X1	Y1	Z1	X2	Y2	Z2	X3	Y3	Z3	X4	Y4	Z4	X5	Y5	Z5	X6	Y6	Z6	X7	Y7	Z7	X8	Y8	Z8	X9	Y9	Z9	X10	Y10	Z10	X11	Y11	Z11	X12	Y12	Z12	X13	Y13	Z13	X14	Y14	Z14	X15	Y15	Z15	X16	Y16	Z16	X17	Y17	Z17	X18	Y18	Z18	X19	Y19	Z19	X20	Y20	Z20	X21	Y21	Z21	X22	Y22	Z22	X23	Y23	Z23	X24	Y24	Z24	X25	Y25	Z25	X26	Y26	Z26	X27	Y27	Z27	X28	Y28	Z28	X29	Y29	Z29	X30	Y30	Z30	X31	Y31	Z31	X32	Y32	Z32	X33	Y33	Z33	X34	Y34	Z34	X35	Y35	Z35	X36	Y36	Z36

956	7.95833	-268.86472	1073.05383	394.20508	-96.19025	1027.15210	334.65543	-230.05545	762.56720	258.65277	-227.34396	718.35034	253.86847	-168.17561	763.40002	250.59807	-173.93999	718.52515	247.03146	-206.86844	536.55389	264.22543	-193.75179	508.73679	384.96262	-278.70752	452.69897	235.67421	-282.07574	407.49200	219.80859	-219.16988	443.50894	234.13052	-231.17621	399.01270	221.23738	-288.58112	105.84292	204.50484	-272.92337	103.09655	281.31171	-348.05838	74.94512	243.00966	-159.90083	38.42764	162.68518	-102.41346	67.93787	226.94635	-130.20544	41.29505	271.35773	-284.08224	1069.65735	507.03561	-106.05991	1021.77734	594.46429	-230.31767	762.64594	670.39557	-226.89532	716.89288	669.50592	-168.19348	759.92523	672.86908	-173.91141	712.91400	673.28503	-225.53519	537.41565	656.31293	-200.84320	514.27142	526.81012	-296.61337	448.91321	682.14832	-298.02698	407.77448	696.40674	-234.33084	440.07614	688.93695	-246.49112	401.46359	702.67224	-292.91061	107.68763	707.74805	-263.54407	113.03339	629.23889	-357.08209	68.04768	662.61230	-138.61847	46.90532	648.33893	-102.43645	64.30775	686.69391	-145.02475	38.67323	755.24677
957	7.96667	-267.87558	1073.07129	393.39267	-95.26083	1026.97339	334.27582	-229.48695	762.65106	258.02042	-226.90367	718.42230	253.44377	-167.61220	763.31866	250.27751	-173.46132	718.49353	246.68446	-206.97032	536.54272	263.92276	-194.06787	508.79608	384.72684	-278.86264	452.68008	235.33908	-282.18979	407.41858	219.54564	-219.35481	443.46136	233.87346	-231.30319	398.98615	220.97884	-288.61874	105.79055	204.47972	-272.89105	103.05233	281.30737	-348.13068	74.88012	243.03401	-159.90807	38.39152	162.67871	-102.42429	67.92406	226.94864	-130.22633	41.25304	271.38403	-283.34702	1069.66174	506.19052	-105.75367	1021.52643	594.08789	-230.22952	762.49066	669.90100	-226.84259	716.72156	669.04993	-168.28421	759.77808	672.43976	-173.95602	712.77643	672.84430	-225.52495	537.34357	656.01947	-200.66238	514.14569	526.53650	-296.53091	448.90622	681.90033	-297.96548	407.80026	696.16687	-234.27737	440.07135	688.69049	-246.49609	401.46844	702.40009	-292.87524	107.68983	707.72247	-263.52805	112.99244	629.20514	-357.09970	68.04824	662.61267	-138.60890	46.87888	648.33881	-102.42075	64.27110	686.69391	-145.05145	38.65039	755.25970
958	7.97500	-266.85715	1073.27710	392.61911	-94.37206	1026.85449	333.86761	-228.97542	762.75952	257.58310	-226.34451	718.51923	252.97914	-167.10121	763.31763	250.02069	-172.90030	718.53101	246.33783	-207.06656	536.60107	263.65097	-194.41771	508.94879	384.45523	-278.99725	452.68781	235.04736	-282.36023	407.40894	219.32558	-219.51089	443.54083	233.59068	-231.37453	399.05643	220.72145	-288.64420	105.78443	204.43623	-272.91412	103.07869	281.27496	-348.16064	74.82723	243.03032	-159.89388	38.40869	162.66777	-102.41280	67.94649	226.94458	-130.24521	41.26241	271.37683	-282.54218	1069.85645	505.38937	-105.40890	1021.32214	593.75067	-230.25861	762.43842	669.42047	-226.88196	716.69373	668.63177	-168.42343	759.68079	671.99011	-174.13307	712.68176	672.43396	-225.48846	537.29120	655.66840	-200.44699	514.06451	526.19531	-296.43515	448.91293	681.62183	-297.87741	407.85519	695.91943	-234.17969	440.10004	688.39880	-246.46841	401.50079	702.15308	-292.85147	107.72139	707.67688	-263.51498	113.00645	629.14679	-357.11194	68.06850	662.60596	-138.60107	46.91193	648.31091	-102.41306	64.30561	686.69519	-145.07106	38.65948	755.26117
959	7.98333	-265.96130	1073.50122	391.74954	-93.35696	1026.83582	333.49591	-228.43529	762.91150	257.17755	-225.79659	718.67688	252.50511	-166.47534	763.40125	249.68219	-172.40279	718.53510	246.08920	-207.18399	536.70648	263.36740	-194.69119	509.13947	384.19296	-279.18979	452.74628	234.73567	-282.54306	407.42664	219.07829	-219.69781	443.63544	233.32188	-231.49815	399.13998	220.51546	-288.66968	105.81738	204.40323	-272.96463	103.13412	281.21866	-348.16458	74.81414	243.03076	-159.91103	38.44773	162.66283	-102.42648	68.00108	226.93648	-130.24362	41.32737	271.36166	-281.97141	1070.08301	504.47644	-105.07376	1021.23505	593.42426	-230.33258	762.48981	668.93842	-227.03387	716.72778	668.15222	-168.39886	759.76703	671.53223	-174.20479	712.70001	672.04816	-225.41460	537.27307	655.29156	-200.27539	514.01953	525.87952	-296.33759	448.95963	681.35834	-297.77039	407.95059	695.69330	-234.06989	440.16476	688.11816	-246.40149	401.55621	701.92352	-292.85059	107.79963	707.63336	-263.49411	113.03392	629.08636	-357.10117	68.13081	662.57855	-138.58659	46.97170	648.31433	-102.40752	64.35961	686.66925	-145.10004	38.69699	755.24750
